<?xml version="1.0" encoding="utf-8"?>
<!-- Generator: Adobe Illustrator 26.4.1, SVG Export Plug-In . SVG Version: 6.00 Build 0)  -->
<svg version="1.1" id="Layer_1" xmlns="http://www.w3.org/2000/svg" xmlns:xlink="http://www.w3.org/1999/xlink" x="0px" y="0px"
	 viewBox="0 0 600 600" style="enable-background:new 0 0 600 600;" xml:space="preserve">
<style type="text/css">
	.st0{fill:#fffff;}
</style>
<path id="Rectangle_1" class="st0" d="M362.2,218.5l35.9-89.1c5.7-14.1,25.7-14,31.2,0.2l134.9,348.2c5.4,14-8.9,27.5-22.5,21.4
	l-89.4-40.3c-4-1.8-7.2-5.1-8.7-9.2l-81.4-210C359.5,232.8,359.5,225.2,362.2,218.5z"/>
<path id="Rectangle_1_copy" class="st0" d="M131.3,461.8l-84.9,38.3c-13.7,6.2-28-7.4-22.5-21.4l134.9-348.2
	c5.5-14.2,25.5-14.3,31.2-0.2l35.9,89.1c2.7,6.8,2.8,14.3,0.1,21.2L146.3,446C143.5,453.1,138.1,458.7,131.3,461.8z"/>
<path class="st0" d="M282.8,291.4l-36.5,95.6c-3.8,10,6.4,19.6,16.1,15.2l26.6-11.9c3.1-1.4,6.7-1.4,9.8,0l26.6,11.9
	c9.8,4.4,19.9-5.2,16.1-15.2l-36.5-95.6C301.3,281.1,286.7,281.1,282.8,291.4z"/>
</svg>
